<?xml version="1.0" standalone="no"?>
<!DOCTYPE svg PUBLIC "-//W3C//DTD SVG 20010904//EN"
 "http://www.w3.org/TR/2001/REC-SVG-20010904/DTD/svg10.dtd">
<svg version="1.0" xmlns="http://www.w3.org/2000/svg"
 width="260.000000pt" height="260.000000pt" viewBox="0 0 260.000000 260.000000"
 preserveAspectRatio="xMidYMid meet">
<metadata>
Created by potrace 1.11, written by Peter Selinger 2001-2013
</metadata>
<g transform="translate(0.000000,260.000000) scale(0.100000,-0.100000)"
fill="#000000" stroke="none">
<path d="M970 2520 l0 -80 -80 0 -80 0 0 -85 0 -85 -80 0 -80 0 0 -80 0 -80
-80 0 -80 0 0 -80 0 -80 -80 0 -80 0 0 -160 0 -160 -85 0 -85 0 0 -85 0 -85
85 0 85 0 0 -80 0 -80 -85 0 -85 0 0 -80 0 -80 -80 0 -80 0 0 -245 0 -245 80
0 80 0 0 -80 0 -80 85 0 85 0 0 -85 0 -85 80 0 80 0 0 -80 0 -80 -80 0 -80 0
0 -80 0 -80 730 0 730 0 0 80 0 80 160 0 160 0 0 80 0 80 85 0 85 0 0 165 0
165 80 0 80 0 0 160 0 160 80 0 80 0 0 165 0 165 -80 0 -80 0 0 80 0 80 80 0
80 0 0 165 0 165 -80 0 -80 0 0 80 0 80 -325 0 -325 0 0 -80 0 -80 -80 0 -80
0 0 80 0 80 -85 0 -85 0 0 160 0 160 85 0 85 0 0 165 0 165 -330 0 -330 0 0
-80z"/>
</g>
</svg>
